HIERARCHY
ROOT Hips
{
	OFFSET 0.000000 0.000000 0.000000
	CHANNELS 6 Xposition Yposition Zposition Xrotation Yrotation Zrotation
	JOINT LeftUpLeg_virtual
	{
		OFFSET 0.000000 0.000000 0.000000
		CHANNELS 3 Xrotation Yrotation Zrotation
		JOINT LeftUpLeg
		{
			OFFSET 11.394100 -6.187798 -0.413800
			CHANNELS 3 Xrotation Yrotation Zrotation
			JOINT LeftLeg
			{
				OFFSET 0.430247 -32.302673 3.732800
				CHANNELS 3 Xrotation Yrotation Zrotation
				JOINT LeftFoot
				{
					OFFSET -0.430247 -48.264931 -6.423300
					CHANNELS 3 Xrotation Yrotation Zrotation
					JOINT LeftToeBase
					{
						OFFSET 4.230900 -16.068199 23.438400
						CHANNELS 3 Xrotation Yrotation Zrotation
						JOINT LeftToe_End
						{
							OFFSET 4.510700 0.695400 19.974600
							CHANNELS 3 Xrotation Yrotation Zrotation
							End Site
							{
								OFFSET 0 0 0
							}
						}
					}
				}
			}
		}
	}
	JOINT RightUpLeg_virtual
	{
		OFFSET 0.000000 0.000000 0.000000
		CHANNELS 3 Xrotation Yrotation Zrotation
		JOINT RightUpLeg
		{
			OFFSET -11.333700 -6.187798 -0.413800
			CHANNELS 3 Xrotation Yrotation Zrotation
			JOINT RightLeg
			{
				OFFSET -0.430392 -32.302628 3.733000
				CHANNELS 3 Xrotation Yrotation Zrotation
				JOINT RightFoot
				{
					OFFSET 0.430392 -48.264973 -6.423500
					CHANNELS 3 Xrotation Yrotation Zrotation
					JOINT RightToeBase
					{
						OFFSET -4.230900 -16.068199 23.438400
						CHANNELS 3 Xrotation Yrotation Zrotation
						JOINT RightToe_End
						{
							OFFSET -4.510700 0.695400 19.974600
							CHANNELS 3 Xrotation Yrotation Zrotation
							End Site
							{
								OFFSET 0 0 0
							}
						}
					}
				}
			}
		}
	}
	JOINT Spine_virtual
	{
		OFFSET 0.000000 0.000000 0.000000
		CHANNELS 3 Xrotation Yrotation Zrotation
		JOINT Spine
		{
			OFFSET -0.002400 12.777504 0.315300
			CHANNELS 3 Xrotation Yrotation Zrotation
			JOINT Spine1
			{
				OFFSET -0.002067 5.816869 0.032633
				CHANNELS 3 Xrotation Yrotation Zrotation
				JOINT Spine1_split
				{
					OFFSET -0.002067 5.816869 0.032633
					CHANNELS 3 Xrotation Yrotation Zrotation
					JOINT Spine2
					{
						OFFSET -0.002067 5.816869 0.032633
						CHANNELS 3 Xrotation Yrotation Zrotation
						JOINT Neck_virtual
						{
							OFFSET 0.000000 0.000000 0.000000
							CHANNELS 3 Xrotation Yrotation Zrotation
							JOINT Neck
							{
								OFFSET -0.003700 21.199493 -0.826900
								CHANNELS 3 Xrotation Yrotation Zrotation
								JOINT Head
								{
									OFFSET 0.000000 20.442200 4.834800
									CHANNELS 3 Xrotation Yrotation Zrotation
									JOINT HeadTop_End
									{
										OFFSET 0.000000 34.668396 4.968400
										CHANNELS 3 Xrotation Yrotation Zrotation
										End Site
										{
											OFFSET 0 0 0
										}
									}
								}
							}
						}
						JOINT LeftShoulder_virtual
						{
							OFFSET 0.000000 0.000000 0.000000
							CHANNELS 3 Xrotation Yrotation Zrotation
							JOINT LeftShoulder
							{
								OFFSET 3.288150 8.794197 -1.372250
								CHANNELS 3 Xrotation Yrotation Zrotation
								JOINT LeftShoulder_split
								{
									OFFSET 3.288150 8.794197 -1.372250
									CHANNELS 3 Xrotation Yrotation Zrotation
									JOINT LeftArm
									{
										OFFSET 11.953299 -2.279007 -0.146200
										CHANNELS 3 Xrotation Yrotation Zrotation
										JOINT LeftForeArm
										{
											OFFSET 18.448900 0.000000 0.000000
											CHANNELS 3 Xrotation Yrotation Zrotation
											JOINT LeftHand
											{
												OFFSET 29.527798 0.000000 0.000000
												CHANNELS 3 Xrotation Yrotation Zrotation
												End Site
												{
													OFFSET 0 0 0
												}
											}
										}
									}
								}
							}
						}
						JOINT RightShoulder_virtual
						{
							OFFSET 0.000000 0.000000 0.000000
							CHANNELS 3 Xrotation Yrotation Zrotation
							JOINT RightShoulder
							{
								OFFSET -3.249400 8.794197 -1.372250
								CHANNELS 3 Xrotation Yrotation Zrotation
								JOINT RightShoulder_split
								{
									OFFSET -3.249400 8.794197 -1.372250
									CHANNELS 3 Xrotation Yrotation Zrotation
									JOINT RightArm
									{
										OFFSET -11.953299 -2.279007 -0.146200
										CHANNELS 3 Xrotation Yrotation Zrotation
										JOINT RightForeArm
										{
											OFFSET -18.448900 0.000000 0.000000
											CHANNELS 3 Xrotation Yrotation Zrotation
											JOINT RightHand
											{
												OFFSET -29.527802 0.000000 0.000000
												CHANNELS 3 Xrotation Yrotation Zrotation
												End Site
												{
													OFFSET 0 0 0
												}
											}
										}
									}
								}
							}
						}
					}
				}
			}
		}
	}
}
MOTION
Frames: 4
Frame Time: 0.03333333
-3.585202 98.639503 12.626217 0.000000 0.000000 0.000000 176.147710 -61.420367 178.544096 -7.436185 17.348814 15.692829 22.114838 19.890862 2.416533 -7.662992 4.086051 -22.940816 -7.801093 2.391396 -0.870740 0.000000 0.000000 0.000000 175.503814 -60.597302 177.657919 -23.937926 -16.954975 -15.629063 17.470290 -15.141790 -0.633144 8.538783 0.769619 4.336621 -4.686830 -18.255200 7.911978 0.000000 0.000000 0.000000 174.750718 -65.071178 176.193759 9.413422 -0.693615 -0.057501 0.065533 -1.267339 2.104616 0.943878 -0.833482 0.026812 0.000000 0.000000 0.000000 -2.154898 -1.218012 2.508939 -4.250780 21.876929 4.340537 2.124431 23.711700 -8.071813 0.000000 0.000000 0.000000 -2.059599 -0.700767 2.116687 1.037191 1.379878 -8.481123 2.127347 -3.709994 -1.596437 -0.677004 -7.420709 -58.677889 4.920528 -16.529756 -6.098908 0.000000 0.000000 0.000000 -1.598691 -1.119053 1.687784 1.916616 -2.048711 18.750773 -2.963661 -1.306442 -0.458791 16.540678 27.562400 45.346350 16.350875 26.306836 -6.095329 0.000000 0.000000 0.000000 
-3.423358 97.989929 10.042816 0.000000 0.000000 0.000000 176.550268 -57.865472 179.018520 -5.842342 18.898076 17.172479 23.561998 22.627829 1.854898 -6.349402 5.173889 -23.905109 -6.641167 2.675281 -1.802831 0.000000 0.000000 0.000000 175.967229 -57.054780 178.114832 -25.643605 -17.481801 -14.501357 18.357802 -14.103680 -0.686112 9.371850 2.030614 4.720979 -4.789878 -17.983827 6.596177 0.000000 0.000000 0.000000 175.848111 -61.123711 177.507177 9.575750 -1.225852 -0.339641 0.117994 -1.632082 2.656061 1.032793 -0.574803 -0.024656 0.000000 0.000000 0.000000 -2.189809 -1.585290 3.017055 -4.423249 19.268092 3.129011 1.436527 19.919120 -6.306991 0.000000 0.000000 0.000000 -1.941950 -1.040810 2.655530 1.101075 1.987527 -9.334305 1.710985 -3.827004 -1.452519 0.563228 -8.076027 -59.013135 4.237355 -16.484294 -5.995854 0.000000 0.000000 0.000000 -1.460173 -1.435996 2.187228 1.907113 -2.345387 18.164511 -2.790886 -1.104739 -0.379747 15.714503 28.509732 45.588002 16.056718 26.173252 -6.341627 0.000000 0.000000 0.000000 
-3.171816 97.202438 7.304832 0.000000 0.000000 0.000000 177.045033 -54.410694 179.326685 -5.949821 19.152347 19.546243 27.589409 24.361106 0.861224 -2.694393 5.030112 -24.378849 -3.588039 3.226316 -5.286857 0.000000 0.000000 0.000000 176.630919 -53.611924 178.489058 -26.607091 -18.083430 -12.710442 19.428222 -12.735667 -0.852962 8.989409 2.886136 4.615657 -4.577964 -17.598891 5.341258 0.000000 0.000000 0.000000 176.899031 -57.194638 178.470220 9.901679 -1.787577 -0.519622 0.116356 -1.994664 3.092656 1.007965 -0.304566 -0.146020 0.000000 0.000000 0.000000 -2.261067 -1.962166 3.412989 -4.499006 16.321664 2.215807 0.915777 15.919841 -4.708049 0.000000 0.000000 0.000000 -1.878164 -1.393171 3.083624 1.162059 2.481373 -9.935893 1.440449 -3.949789 -1.219350 2.101129 -8.697171 -59.462275 3.658075 -16.788412 -5.984902 0.000000 0.000000 0.000000 -1.408060 -1.758399 2.606812 1.917920 -2.517160 17.777271 -2.800383 -0.854777 -0.311811 14.977032 29.435062 45.782283 15.651281 26.086627 -6.310057 0.000000 0.000000 0.000000 
-2.871046 96.452591 4.374268 0.000000 0.000000 0.000000 177.574140 -51.175326 179.432006 -7.579580 17.376000 22.439553 33.436706 24.306400 -0.011329 3.462646 3.178688 -24.775692 -0.674153 3.802956 -10.625269 0.000000 0.000000 0.000000 177.452235 -50.373151 178.798739 -26.550345 -18.636233 -10.426418 20.649783 -11.277923 -1.145779 7.341191 3.123564 3.634976 -3.921466 -17.187466 4.494452 0.000000 0.000000 0.000000 177.816790 -53.331715 179.002319 10.343965 -2.265173 -0.541782 0.014995 -2.283828 3.278843 0.920737 0.059037 -0.147063 0.000000 0.000000 0.000000 -2.355923 -2.264824 3.560931 -4.417561 13.160292 1.727027 0.570899 11.895606 -3.373855 0.000000 0.000000 0.000000 -1.900316 -1.681568 3.278367 1.191234 2.813954 -10.180288 1.236828 -3.925435 -0.992320 3.706203 -8.982434 -59.978384 3.166461 -17.396251 -6.109167 0.000000 0.000000 0.000000 -1.450427 -2.026231 2.814763 1.918728 -2.563525 17.616668 -2.827251 -0.660223 -0.232888 14.341681 30.185755 45.910626 15.235326 26.077208 -6.088940 0.000000 0.000000 0.000000 
